<svg width="101" height="36" viewBox="0 0 101 36" fill="none" xmlns="http://www.w3.org/2000/svg">
<path d="M22.1294 0.587891H15.5069L5.80664 27.7023H13.9928L18.7898 14.0398L23.64 27.7023H31.5519" fill="white"/>
<path d="M5.77148 27.3203L5.80686 27.4371L5.77148 27.3203Z" fill="white"/>
<path d="M50.2399 12.2659V14.4787C50.0524 14.5371 49.8508 14.5848 49.635 14.6184C49.4192 14.652 49.1821 14.6697 48.9274 14.6697C48.0625 14.6697 47.3779 14.461 46.8774 14.0436C46.375 13.6261 46.1256 12.954 46.1256 12.0306V9.05016H44.9458V6.86565H46.0814L46.5537 4.94824H48.5595V6.86565H50.2417V9.04839H48.5595V11.4239C48.5595 11.7688 48.6409 12.0165 48.8036 12.1686C48.9646 12.3207 49.1804 12.3968 49.4457 12.3968C49.6031 12.3968 49.7499 12.3844 49.8879 12.3596C50.0241 12.3366 50.1426 12.3048 50.2399 12.2659Z" fill="white"/>
<path d="M54.002 3.84277V7.3539C54.3168 7.14695 54.6635 6.98068 55.042 6.85155C55.4206 6.7242 55.8062 6.66052 56.2006 6.66052C56.7313 6.66052 57.1646 6.74896 57.4989 6.92584C57.8332 7.10273 58.0933 7.33621 58.2808 7.6263C58.4682 7.91639 58.5921 8.2507 58.6575 8.62922C58.7212 9.00775 58.753 9.39867 58.753 9.80196V14.5371H56.3191V10.0231C56.3191 9.5897 56.2572 9.30315 56.1352 9.15987C56.0113 9.0166 55.8079 8.94585 55.5232 8.94585C55.2667 8.94585 55.0067 9.00422 54.7413 9.12273C54.476 9.24124 54.2301 9.39867 54.0037 9.59501V14.5371H51.5698V3.84277H54.002Z" fill="white"/>
<path d="M63.752 14.7444C63.1718 14.7444 62.6412 14.6453 62.1583 14.449C61.6772 14.2526 61.2615 13.9802 60.9112 13.63C60.5628 13.2816 60.2922 12.8553 60.0994 12.3547C59.9083 11.8523 59.811 11.3022 59.811 10.7026C59.811 10.1118 59.9048 9.56878 60.0905 9.07351C60.278 8.57647 60.538 8.15195 60.8723 7.79819C61.2066 7.44442 61.6117 7.16671 62.0893 6.96507C62.5669 6.76342 63.094 6.6626 63.6742 6.6626C64.265 6.6626 64.7956 6.76342 65.2679 6.96507C65.7402 7.16671 66.1381 7.44265 66.4636 7.79111C66.7873 8.13957 67.0367 8.55171 67.2083 9.02222C67.3799 9.49449 67.4665 9.99507 67.4665 10.5275C67.4665 10.715 67.4595 10.8972 67.4435 11.0741C67.4294 11.2509 67.4117 11.4031 67.3922 11.5322H62.1123C62.2007 11.9355 62.3953 12.245 62.6942 12.4608C62.9949 12.6766 63.3858 12.781 63.867 12.7704C64.2207 12.7704 64.5427 12.689 64.8327 12.5263C65.1228 12.3635 65.3705 12.1265 65.5774 11.8117L67.2879 12.712C66.9341 13.3612 66.4601 13.8617 65.864 14.2173C65.2749 14.5675 64.5692 14.7444 63.752 14.7444ZM63.6795 8.53402C63.2868 8.53402 62.9525 8.64015 62.6765 8.85064C62.4006 9.0629 62.2184 9.36537 62.13 9.75805H65.213C65.1441 9.36537 64.9742 9.0629 64.7036 8.85064C64.433 8.64015 64.0916 8.53402 63.6795 8.53402Z" fill="white"/>
<path d="M74.1226 14.5371L71.7329 6.86572H74.1668L75.4209 11.2613L76.8661 6.86572H78.7392L80.1702 11.2613L81.4385 6.86572H83.7981L81.4102 14.5371H79.1673L77.7965 10.6722L76.4398 14.5371H74.1226Z" fill="white"/>
<path d="M87.9883 14.7444C87.4081 14.7444 86.8775 14.6453 86.3946 14.449C85.9135 14.2526 85.4978 13.9802 85.1476 13.63C84.7991 13.2816 84.5285 12.8553 84.3357 12.3547C84.1446 11.8523 84.0474 11.3022 84.0474 10.7026C84.0474 10.1118 84.1411 9.56878 84.3268 9.07351C84.5143 8.57647 84.7743 8.15195 85.1087 7.79819C85.443 7.44442 85.848 7.16671 86.3256 6.96507C86.8032 6.76342 87.3303 6.6626 87.9105 6.6626C88.5013 6.6626 89.0319 6.76342 89.5042 6.96507C89.9765 7.16671 90.3744 7.44265 90.6999 7.79111C91.0236 8.13957 91.273 8.55171 91.4446 9.02222C91.6162 9.49449 91.7028 9.99507 91.7028 10.5275C91.7028 10.715 91.6958 10.8972 91.6798 11.0741C91.6657 11.2509 91.648 11.4031 91.6285 11.5322H86.3486C86.437 11.9355 86.6316 12.245 86.9305 12.4608C87.2312 12.6766 87.6222 12.781 88.1033 12.7704C88.457 12.7704 88.779 12.689 89.0691 12.5263C89.3591 12.3635 89.6068 12.1265 89.8137 11.8117L91.5242 12.712C91.1704 13.3612 90.6964 13.8617 90.1003 14.2173C89.5113 14.5675 88.8055 14.7444 87.9883 14.7444ZM87.9158 8.53402C87.5231 8.53402 87.1888 8.64015 86.9129 8.85064C86.6369 9.0629 86.4547 9.36537 86.3663 9.75805H89.4494C89.3804 9.36537 89.2106 9.0629 88.9399 8.85064C88.6693 8.64015 88.3279 8.53402 87.9158 8.53402Z" fill="white"/>
<path d="M97.3118 6.66052C97.8425 6.66052 98.3342 6.76134 98.787 6.96299C99.2398 7.16463 99.6272 7.44411 99.9527 7.80318C100.276 8.16225 100.533 8.59031 100.72 9.08735C100.908 9.58439 101 10.1221 101 10.7023C101 11.2825 100.908 11.822 100.727 12.3172C100.545 12.8143 100.292 13.2423 99.9686 13.6014C99.6449 13.9605 99.2558 14.24 98.8029 14.4416C98.3501 14.6432 97.8584 14.7441 97.3277 14.7441C96.8466 14.7441 96.4009 14.6539 95.9923 14.4717C95.5837 14.2895 95.2334 14.0365 94.938 13.7128L94.7169 14.5389H92.8438V3.84277H95.2777V7.29376C95.5536 7.08681 95.8631 6.92938 96.2081 6.82148C96.5494 6.71358 96.9191 6.66052 97.3118 6.66052ZM96.9138 8.84325C96.4221 8.84325 96.0259 9.02014 95.7269 9.3739C95.4262 9.72767 95.2777 10.1699 95.2777 10.7023C95.2777 11.2329 95.428 11.6751 95.7269 12.0307C96.0276 12.3844 96.4221 12.5613 96.9138 12.5613C97.3861 12.5613 97.7752 12.3844 98.0795 12.0307C98.3837 11.6769 98.5376 11.2347 98.5376 10.7023C98.5376 10.1716 98.3855 9.72944 98.0795 9.3739C97.7735 9.02014 97.3861 8.84325 96.9138 8.84325Z" fill="white"/>
<path d="M46.0213 28.5589V23.2047H44.8999V21.0219H46.0213V20.3285C46.0213 19.4441 46.2743 18.7348 46.7802 18.2042C47.2861 17.6735 47.967 17.4082 48.8232 17.4082C49.0991 17.4082 49.345 17.4259 49.5608 17.4595C49.7766 17.4949 49.9304 17.5267 50.0171 17.555V19.7077C49.9481 19.6882 49.8597 19.6688 49.7518 19.6493C49.6439 19.6299 49.5148 19.6192 49.368 19.6192C49.023 19.6192 48.786 19.7201 48.6534 19.9217C48.5207 20.1234 48.4535 20.4205 48.4535 20.815V21.0219H49.9287V23.2047H48.4535V28.5589H46.0213Z" fill="white"/>
<path d="M55.2508 20.6821C55.8504 20.6821 56.4023 20.783 56.9028 20.9846C57.4034 21.1862 57.8315 21.4657 58.1852 21.8248C58.539 22.1839 58.8149 22.6119 59.0113 23.109C59.2076 23.606 59.3067 24.1437 59.3067 24.7239C59.3067 25.3041 59.2076 25.8436 59.0113 26.3388C58.8149 26.8359 58.539 27.2639 58.1852 27.623C57.8315 27.9821 57.4034 28.2616 56.9028 28.4632C56.4005 28.6649 55.8504 28.7657 55.2508 28.7657C54.6511 28.7657 54.1028 28.6649 53.6057 28.4632C53.1087 28.2616 52.6842 27.9821 52.3304 27.623C51.9767 27.2639 51.7007 26.8359 51.5044 26.3388C51.308 25.8418 51.209 25.3041 51.209 24.7239C51.209 24.1437 51.3063 23.606 51.5044 23.109C51.7007 22.6119 51.9767 22.1839 52.3304 21.8248C52.6842 21.4657 53.1105 21.1862 53.6057 20.9846C54.1028 20.783 54.6511 20.6821 55.2508 20.6821ZM55.2508 26.4786C55.7319 26.4786 56.1193 26.3141 56.4093 25.9851C56.6994 25.6561 56.8445 25.2298 56.8445 24.7098C56.8445 24.1986 56.6994 23.7811 56.4093 23.4557C56.1193 23.1302 55.7336 22.9692 55.2508 22.9692C54.7785 22.9692 54.3982 23.132 54.1081 23.4557C53.818 23.7793 53.673 24.1986 53.673 24.7098C53.673 25.2316 53.818 25.6561 54.1081 25.9851C54.3982 26.3141 54.7785 26.4786 55.2508 26.4786Z" fill="white"/>
<path d="M62.3616 20.8876L62.5526 21.6252C62.7985 21.3988 63.1063 21.1848 63.4742 20.9831C63.8421 20.7815 64.2135 20.6807 64.5885 20.6807C64.746 20.6807 64.8928 20.693 65.0307 20.7178C65.1687 20.7426 65.2766 20.7797 65.3544 20.8292V23.0421H64.8521C64.4293 23.0421 64.0561 23.081 63.7307 23.1606C63.407 23.2402 63.1346 23.3622 62.9188 23.5302V28.5608H60.4849V20.8894H62.3616V20.8876Z" fill="white"/>
<path d="M69.812 28.7659C69.2319 28.7659 68.7012 28.6668 68.2183 28.4705C67.7372 28.2741 67.3215 28.0017 66.9713 27.6515C66.6228 27.303 66.3522 26.8767 66.1594 26.3762C65.9684 25.8738 65.8711 25.3237 65.8711 24.7241C65.8711 24.1333 65.9648 23.5903 66.1506 23.095C66.3381 22.598 66.5981 22.1734 66.9324 21.8197C67.2667 21.4659 67.6718 21.1882 68.1493 20.9866C68.6269 20.7849 69.154 20.6841 69.7342 20.6841C70.325 20.6841 70.8557 20.7849 71.3279 20.9866C71.8002 21.1882 72.1982 21.4641 72.5237 21.8126C72.8474 22.1611 73.0968 22.5732 73.2683 23.0437C73.4399 23.516 73.5266 24.0166 73.5266 24.549C73.5266 24.7365 73.5195 24.9187 73.5036 25.0955C73.4894 25.2724 73.4718 25.4245 73.4523 25.5537H68.1723C68.2608 25.957 68.4554 26.2665 68.7543 26.4823C69.055 26.6981 69.4459 26.8025 69.927 26.7918C70.2808 26.7918 70.6027 26.7105 70.8928 26.5477C71.1829 26.385 71.4305 26.148 71.6375 25.8331L73.3479 26.7335C72.9942 27.3826 72.5201 27.8832 71.924 28.2387C71.3332 28.589 70.6275 28.7659 69.812 28.7659ZM69.7378 22.5555C69.3451 22.5555 69.0108 22.6616 68.7348 22.8721C68.4589 23.0844 68.2767 23.3869 68.1883 23.7795H71.2713C71.2023 23.3869 71.0325 23.0844 70.7619 22.8721C70.493 22.6616 70.1517 22.5555 69.7378 22.5555Z" fill="white"/>
<path d="M74.473 23.1743C74.473 22.8294 74.5437 22.5039 74.687 22.1926C74.8303 21.8831 75.0337 21.6124 75.299 21.3807C75.5643 21.149 75.8863 20.965 76.2648 20.8271C76.6433 20.6891 77.0731 20.6201 77.556 20.6201C78.2636 20.6201 78.8721 20.7581 79.3779 21.0323C79.8838 21.3082 80.2995 21.6372 80.625 22.021L79.224 23.3193C79.0083 23.1124 78.7447 22.9391 78.4351 22.7958C78.1256 22.6543 77.7789 22.5817 77.3951 22.5817C77.1492 22.5817 76.9529 22.6242 76.8061 22.7073C76.6592 22.7905 76.5849 22.9107 76.5849 23.0682C76.5849 23.215 76.6663 23.3406 76.8273 23.4449C76.99 23.5475 77.3119 23.6501 77.7931 23.7474C78.7465 23.9544 79.4558 24.2533 79.9174 24.6477C80.3791 25.0404 80.6108 25.5923 80.6108 26.2998C80.6108 27.0374 80.3207 27.6406 79.7405 28.1076C79.1604 28.5745 78.4122 28.808 77.4977 28.808C76.8485 28.808 76.2666 28.6771 75.7501 28.4171C75.2336 28.1571 74.7489 27.7467 74.2979 27.186L75.6103 25.8735C75.9835 26.2662 76.3355 26.5351 76.6645 26.6784C76.9936 26.8216 77.3402 26.8924 77.7046 26.8924C77.901 26.8924 78.0708 26.8482 78.214 26.7597C78.3573 26.6713 78.4281 26.5528 78.4281 26.406C78.4281 26.2397 78.3131 26.0964 78.0814 25.9779C77.8497 25.8594 77.4004 25.7267 76.7318 25.5799C75.9641 25.4225 75.3963 25.143 75.0284 24.7397C74.6569 24.3347 74.473 23.8129 74.473 23.1743Z" fill="white"/>
<path d="M86.7609 26.2876V28.5004C86.5734 28.5587 86.3717 28.6065 86.156 28.6401C85.9402 28.6737 85.7031 28.6914 85.4484 28.6914C84.5835 28.6914 83.8989 28.4827 83.3984 28.0652C82.896 27.6478 82.6466 26.9756 82.6466 26.0523V23.0718H81.4668V20.8891H82.6024L83.0747 18.9717H85.0805V20.8891H86.7627V23.0718H85.0805V25.4474C85.0805 25.7923 85.1619 26.0399 85.3246 26.192C85.4873 26.3442 85.7014 26.4202 85.9667 26.4202C86.1241 26.4202 86.2709 26.4078 86.4089 26.3831C86.5433 26.3583 86.6618 26.3265 86.7609 26.2876Z" fill="white"/>
<path d="M89.6511 28.7209C89.1983 28.7209 88.8127 28.5617 88.4925 28.2415C88.1724 27.9214 88.0132 27.5358 88.0132 27.083C88.0132 26.6407 88.1724 26.2587 88.4925 25.9403C88.8127 25.6201 89.1983 25.4609 89.6511 25.4609C90.1039 25.4609 90.4895 25.6201 90.8097 25.9403C91.1299 26.2604 91.289 26.6407 91.289 27.083C91.289 27.5358 91.1299 27.9214 90.8097 28.2415C90.4895 28.5599 90.1039 28.7209 89.6511 28.7209Z" fill="white"/>
<path d="M13.7388 35.6086L18.8572 18.9062L23.9757 35.6086H13.7388Z" fill="white"/>
<path d="M37.9731 0.587891H27.9297L33.2539 16.9425L37.9731 0.587891Z" fill="white"/>
<path d="M10.0452 0.587891H0L4.66617 16.9425L10.0452 0.587891Z" fill="white"/>
</svg>
