<svg width="25" height="19" viewBox="0 0 25 19" fill="none" xmlns="http://www.w3.org/2000/svg">
<path fill-rule="evenodd" clip-rule="evenodd" d="M15.4838 16.258C15.4838 16.6856 15.1372 17.0322 14.7096 17.0322L2.32255 17.0322C1.89497 17.0322 1.54836 16.6856 1.54836 16.258L1.54836 2.3225C1.54836 1.89493 1.89498 1.54831 2.32255 1.54831L14.7096 1.54831C15.1372 1.54831 15.4838 1.89493 15.4838 2.3225L15.4838 5.41928C15.4838 5.84685 15.8305 6.19347 16.258 6.19347C16.6856 6.19347 17.0322 5.84685 17.0322 5.41928L17.0322 2.3225C17.0322 1.03978 15.9924 -7.82467e-05 14.7096 -7.83028e-05L2.32255 -7.88443e-05C1.03983 -7.89003e-05 -2.97508e-05 1.03978 -2.98069e-05 2.3225L-3.04161e-05 16.258C-3.04721e-05 17.5407 1.03982 18.5806 2.32255 18.5806L14.7096 18.5806C15.9924 18.5806 17.0322 17.5407 17.0322 16.258L17.0322 13.1612C17.0322 12.7336 16.6856 12.387 16.258 12.387C15.8305 12.387 15.4838 12.7336 15.4838 13.1612L15.4838 16.258Z" fill="#4D4D4D"/>
<path fill-rule="evenodd" clip-rule="evenodd" d="M24.5477 9.8378C24.85 9.53546 24.85 9.04527 24.5477 8.74293L19.9025 4.09776C19.6002 3.79542 19.11 3.79542 18.8076 4.09776C18.5053 4.40011 18.5053 4.8903 18.8076 5.19264L22.1312 8.51617L8.51635 8.51617C8.08878 8.51617 7.74216 8.86279 7.74216 9.29036C7.74216 9.71794 8.08878 10.0646 8.51635 10.0646L22.1312 10.0646L18.8076 13.3881C18.5053 13.6904 18.5053 14.1806 18.8076 14.483C19.11 14.7853 19.6002 14.7853 19.9025 14.483L24.5477 9.8378Z" fill="#4D4D4D"/>
</svg>
