<svg width="29" height="29" viewBox="0 0 29 29" fill="none" xmlns="http://www.w3.org/2000/svg">
<path d="M3.625 9.0625H25.375C26.3755 9.0625 27.1875 8.2505 27.1875 7.25C27.1875 6.2495 26.3755 5.4375 25.375 5.4375H3.625C2.6245 5.4375 1.8125 6.2495 1.8125 7.25C1.8125 8.2505 2.6245 9.0625 3.625 9.0625ZM25.375 12.6875H3.625C2.6245 12.6875 1.8125 13.4995 1.8125 14.5C1.8125 15.5005 2.6245 16.3125 3.625 16.3125H25.375C26.3755 16.3125 27.1875 15.5005 27.1875 14.5C27.1875 13.4995 26.3755 12.6875 25.375 12.6875ZM25.375 19.9375H3.625C2.6245 19.9375 1.8125 20.7495 1.8125 21.75C1.8125 22.7505 2.6245 23.5625 3.625 23.5625H25.375C26.3755 23.5625 27.1875 22.7505 27.1875 21.75C27.1875 20.7495 26.3755 19.9375 25.375 19.9375Z" fill="white"/>
</svg>
