<svg width="32" height="32" viewBox="0 0 32 32" fill="none" xmlns="http://www.w3.org/2000/svg">
<path d="M26.5333 27.9666L17.7667 19.1999C17.1 19.7777 16.3222 20.2277 15.4333 20.5499C14.5444 20.8721 13.6 21.0332 12.6 21.0332C10.2 21.0332 8.16667 20.1999 6.5 18.5332C4.83333 16.8666 4 14.8554 4 12.4999C4 10.1443 4.83333 8.13322 6.5 6.46655C8.16667 4.79989 10.1889 3.96655 12.5667 3.96655C14.9222 3.96655 16.9278 4.79989 18.5833 6.46655C20.2389 8.13322 21.0667 10.1443 21.0667 12.4999C21.0667 13.4554 20.9111 14.3777 20.6 15.2666C20.2889 16.1554 19.8222 16.9888 19.2 17.7666L28 26.4999L26.5333 27.9666ZM12.5667 19.0332C14.3667 19.0332 15.9 18.3943 17.1667 17.1166C18.4333 15.8388 19.0667 14.2999 19.0667 12.4999C19.0667 10.6999 18.4333 9.161 17.1667 7.88322C15.9 6.60544 14.3667 5.96655 12.5667 5.96655C10.7444 5.96655 9.19444 6.60544 7.91667 7.88322C6.63889 9.161 6 10.6999 6 12.4999C6 14.2999 6.63889 15.8388 7.91667 17.1166C9.19444 18.3943 10.7444 19.0332 12.5667 19.0332Z" fill="#65A944"/>
</svg>
