<svg width="14" height="14" viewBox="0 0 14 14" fill="none" xmlns="http://www.w3.org/2000/svg">
<g clip-path="url(#clip0_1660_3775)">
<path d="M0.600586 2.04338C0.600586 1.93527 0.644046 1.83158 0.721404 1.75514C0.798763 1.67869 0.903684 1.63574 1.01309 1.63574H2.25059C2.3426 1.63577 2.43196 1.66619 2.50446 1.72218C2.57697 1.77817 2.62844 1.85651 2.65071 1.94473L2.98484 3.2663H12.5631C12.6237 3.26635 12.6835 3.27959 12.7383 3.30506C12.7931 3.33054 12.8415 3.36763 12.8802 3.4137C12.9189 3.45977 12.9468 3.51369 12.962 3.57163C12.9772 3.62957 12.9793 3.69011 12.9682 3.74894L11.7307 10.2712C11.713 10.3646 11.6628 10.4489 11.5888 10.5097C11.5149 10.5704 11.4218 10.6037 11.3256 10.6038H3.90059C3.80442 10.6037 3.7113 10.5704 3.63734 10.5097C3.56337 10.4489 3.51321 10.3646 3.49551 10.2712L2.25884 3.76117L1.92884 2.45102H1.01309C0.903684 2.45102 0.798763 2.40807 0.721404 2.33163C0.644046 2.25518 0.600586 2.15149 0.600586 2.04338ZM3.15974 4.08158L4.24296 9.78852H10.9832L12.0664 4.08158H3.15974ZM4.72559 10.6038C4.28798 10.6038 3.86829 10.7756 3.55886 11.0814C3.24942 11.3872 3.07559 11.8019 3.07559 12.2344C3.07559 12.6668 3.24942 13.0815 3.55886 13.3873C3.86829 13.6931 4.28798 13.8649 4.72559 13.8649C5.16319 13.8649 5.58288 13.6931 5.89231 13.3873C6.20175 13.0815 6.37559 12.6668 6.37559 12.2344C6.37559 11.8019 6.20175 11.3872 5.89231 11.0814C5.58288 10.7756 5.16319 10.6038 4.72559 10.6038ZM10.5006 10.6038C10.063 10.6038 9.64329 10.7756 9.33386 11.0814C9.02442 11.3872 8.85058 11.8019 8.85058 12.2344C8.85058 12.6668 9.02442 13.0815 9.33386 13.3873C9.64329 13.6931 10.063 13.8649 10.5006 13.8649C10.9382 13.8649 11.3579 13.6931 11.6673 13.3873C11.9767 13.0815 12.1506 12.6668 12.1506 12.2344C12.1506 11.8019 11.9767 11.3872 11.6673 11.0814C11.3579 10.7756 10.9382 10.6038 10.5006 10.6038ZM4.72559 11.4191C4.94439 11.4191 5.15423 11.505 5.30895 11.6579C5.46367 11.8108 5.55059 12.0181 5.55059 12.2344C5.55059 12.4506 5.46367 12.6579 5.30895 12.8108C5.15423 12.9637 4.94439 13.0496 4.72559 13.0496C4.50678 13.0496 4.29694 12.9637 4.14222 12.8108C3.98751 12.6579 3.90059 12.4506 3.90059 12.2344C3.90059 12.0181 3.98751 11.8108 4.14222 11.6579C4.29694 11.505 4.50678 11.4191 4.72559 11.4191ZM10.5006 11.4191C10.7194 11.4191 10.9292 11.505 11.0839 11.6579C11.2387 11.8108 11.3256 12.0181 11.3256 12.2344C11.3256 12.4506 11.2387 12.6579 11.0839 12.8108C10.9292 12.9637 10.7194 13.0496 10.5006 13.0496C10.2818 13.0496 10.0719 12.9637 9.91722 12.8108C9.7625 12.6579 9.67558 12.4506 9.67558 12.2344C9.67558 12.0181 9.7625 11.8108 9.91722 11.6579C10.0719 11.505 10.2818 11.4191 10.5006 11.4191Z" fill="white"/>
</g>
<defs>
<clipPath id="clip0_1660_3775">
<rect width="13.2" height="13.0444" fill="white" transform="translate(0.600586 0.820312)"/>
</clipPath>
</defs>
</svg>
