<svg width="24" height="24" viewBox="0 0 24 24" fill="none" xmlns="http://www.w3.org/2000/svg">
<path fill-rule="evenodd" clip-rule="evenodd" d="M12 10.9302L17.719 5.21021C17.865 5.06421 18.058 4.99121 18.25 4.99121C18.654 4.99121 19 5.31521 19 5.74021C19 5.93321 18.927 6.12521 18.781 6.27221L13.061 11.9912L18.78 17.7102C18.927 17.8572 19 18.0492 19 18.2412C19 18.6682 18.651 18.9912 18.25 18.9912C18.058 18.9912 17.865 18.9182 17.719 18.7722L12 13.0532L6.281 18.7722C6.135 18.9182 5.942 18.9912 5.75 18.9912C5.349 18.9912 5 18.6682 5 18.2412C5 18.0492 5.073 17.8572 5.22 17.7102L10.939 11.9912L5.219 6.27221C5.073 6.12521 5 5.93321 5 5.74021C5 5.31521 5.346 4.99121 5.75 4.99121C5.942 4.99121 6.135 5.06421 6.281 5.21021L12 10.9302Z" fill="#4D4D4D"/>
</svg>
