<svg width="40" height="40" viewBox="0 0 40 40" fill="none" xmlns="http://www.w3.org/2000/svg">
<g clip-path="url(#clip0_1060_1039)">
<path d="M20 37.5C15.3587 37.5 10.9075 35.6563 7.62563 32.3744C4.34374 29.0925 2.5 24.6413 2.5 20C2.5 15.3587 4.34374 10.9075 7.62563 7.62563C10.9075 4.34374 15.3587 2.5 20 2.5C24.6413 2.5 29.0925 4.34374 32.3744 7.62563C35.6563 10.9075 37.5 15.3587 37.5 20C37.5 24.6413 35.6563 29.0925 32.3744 32.3744C29.0925 35.6563 24.6413 37.5 20 37.5ZM20 40C25.3043 40 30.3914 37.8929 34.1421 34.1421C37.8929 30.3914 40 25.3043 40 20C40 14.6957 37.8929 9.60859 34.1421 5.85786C30.3914 2.10714 25.3043 0 20 0C14.6957 0 9.60859 2.10714 5.85786 5.85786C2.10714 9.60859 0 14.6957 0 20C0 25.3043 2.10714 30.3914 5.85786 34.1421C9.60859 37.8929 14.6957 40 20 40V40Z" fill="#B11A1A"/>
<path d="M11.6153 11.6148C11.7314 11.4984 11.8693 11.406 12.0212 11.343C12.1731 11.28 12.3359 11.2476 12.5003 11.2476C12.6647 11.2476 12.8275 11.28 12.9794 11.343C13.1312 11.406 13.2692 11.4984 13.3853 11.6148L20.0003 18.2323L26.6153 11.6148C26.7315 11.4986 26.8695 11.4064 27.0213 11.3435C27.1732 11.2806 27.3359 11.2482 27.5003 11.2482C27.6646 11.2482 27.8274 11.2806 27.9792 11.3435C28.1311 11.4064 28.2691 11.4986 28.3853 11.6148C28.5015 11.731 28.5937 11.869 28.6566 12.0208C28.7195 12.1727 28.7519 12.3354 28.7519 12.4998C28.7519 12.6642 28.7195 12.8269 28.6566 12.9788C28.5937 13.1306 28.5015 13.2686 28.3853 13.3848L21.7678 19.9998L28.3853 26.6148C28.5015 26.731 28.5937 26.869 28.6566 27.0208C28.7195 27.1727 28.7519 27.3354 28.7519 27.4998C28.7519 27.6642 28.7195 27.8269 28.6566 27.9788C28.5937 28.1306 28.5015 28.2686 28.3853 28.3848C28.2691 28.501 28.1311 28.5932 27.9792 28.6561C27.8274 28.719 27.6646 28.7514 27.5003 28.7514C27.3359 28.7514 27.1732 28.719 27.0213 28.6561C26.8695 28.5932 26.7315 28.501 26.6153 28.3848L20.0003 21.7673L13.3853 28.3848C13.2691 28.501 13.1311 28.5932 12.9792 28.6561C12.8274 28.719 12.6646 28.7514 12.5003 28.7514C12.3359 28.7514 12.1732 28.719 12.0213 28.6561C11.8695 28.5932 11.7315 28.501 11.6153 28.3848C11.4991 28.2686 11.4069 28.1306 11.344 27.9788C11.2811 27.8269 11.2487 27.6642 11.2487 27.4998C11.2487 27.3354 11.2811 27.1727 11.344 27.0208C11.4069 26.869 11.4991 26.731 11.6153 26.6148L18.2328 19.9998L11.6153 13.3848C11.4989 13.2687 11.4065 13.1307 11.3435 12.9789C11.2805 12.827 11.248 12.6642 11.248 12.4998C11.248 12.3354 11.2805 12.1726 11.3435 12.0207C11.4065 11.8688 11.4989 11.7309 11.6153 11.6148Z" fill="#B11A1A"/>
</g>
<defs>
<clipPath id="clip0_1060_1039">
<rect width="40" height="40" fill="white"/>
</clipPath>
</defs>
</svg>
