<svg width="32" height="32" viewBox="0 0 32 32" fill="none" xmlns="http://www.w3.org/2000/svg">
<path d="M28 2C29.1046 2 30 2.89543 30 4V28C30 29.1046 29.1046 30 28 30H4C2.89543 30 2 29.1046 2 28V4C2 2.89543 2.89543 2 4 2H28ZM4 0C1.79086 0 0 1.79086 0 4V28C0 30.2091 1.79086 32 4 32H28C30.2091 32 32 30.2091 32 28V4C32 1.79086 30.2091 0 28 0H4Z" fill="#A00E01"/>
<path d="M14.0031 22C14.0031 20.8954 14.8985 20 16.0031 20C17.1077 20 18.0031 20.8954 18.0031 22C18.0031 23.1046 17.1077 24 16.0031 24C14.8985 24 14.0031 23.1046 14.0031 22Z" fill="#A00E01"/>
<path d="M14.199 9.99008C14.0925 8.92457 14.9292 8 16 8C17.0708 8 17.9075 8.92457 17.801 9.99007L17.0995 17.005C17.043 17.5698 16.5677 18 16 18C15.4323 18 14.957 17.5698 14.9005 17.005L14.199 9.99008Z" fill="#A00E01"/>
</svg>
