<svg width="123" height="40" viewBox="0 0 123 40" fill="none" xmlns="http://www.w3.org/2000/svg">
<path d="M26.9495 0H18.8845L7.07129 33.0205H17.0406L22.8825 16.3821L28.7891 33.0205H38.4245" fill="#65A944"/>
<path d="M7.02832 32.5552L7.0714 32.6973L7.02832 32.5552Z" fill="#65A944"/>
<path d="M61.1826 14.2212V16.916C60.9543 16.9871 60.7087 17.0452 60.4459 17.0861C60.1831 17.1271 59.8945 17.1486 59.5843 17.1486C58.5309 17.1486 57.6973 16.8944 57.0876 16.3861C56.4759 15.8777 56.1721 15.0591 56.1721 13.9347V10.305H54.7354V7.64464H56.1183L56.6934 5.30957H59.1362V7.64464H61.1848V10.3028H59.1362V13.1958C59.1362 13.6159 59.2353 13.9174 59.4335 14.1027C59.6295 14.2879 59.8923 14.3806 60.2154 14.3806C60.4071 14.3806 60.5859 14.3655 60.754 14.3353C60.9198 14.3073 61.0642 14.2686 61.1826 14.2212Z" fill="#65A944"/>
<path d="M65.7646 3.96338V8.23931C66.1481 7.98727 66.5703 7.78479 67.0313 7.62754C67.4922 7.47244 67.9618 7.39489 68.4422 7.39489C69.0885 7.39489 69.6162 7.5026 70.0233 7.71801C70.4305 7.93342 70.7471 8.21777 70.9755 8.57104C71.2038 8.92432 71.3546 9.33144 71.4343 9.79243C71.5118 10.2534 71.5506 10.7295 71.5506 11.2206V16.9872H68.5865V11.4899C68.5865 10.9621 68.5111 10.6131 68.3625 10.4387C68.2117 10.2642 67.964 10.178 67.6172 10.178C67.3048 10.178 66.9882 10.2491 66.6651 10.3934C66.342 10.5378 66.0425 10.7295 65.7668 10.9686V16.9872H62.8027V3.96338H65.7646Z" fill="#65A944"/>
<path d="M77.6383 17.2396C76.9317 17.2396 76.2855 17.119 75.6974 16.8799C75.1115 16.6408 74.6052 16.3091 74.1787 15.8825C73.7544 15.4582 73.4248 14.939 73.19 14.3294C72.9573 13.7176 72.8389 13.0477 72.8389 12.3175C72.8389 11.598 72.953 10.9367 73.1792 10.3335C73.4076 9.72822 73.7242 9.21123 74.1313 8.78041C74.5385 8.34958 75.0318 8.01138 75.6134 7.76582C76.195 7.52025 76.8369 7.39746 77.5435 7.39746C78.2629 7.39746 78.9092 7.52025 79.4843 7.76582C80.0595 8.01138 80.5442 8.34743 80.9405 8.77179C81.3347 9.19615 81.6385 9.69806 81.8474 10.2711C82.0563 10.8462 82.1619 11.4558 82.1619 12.1042C82.1619 12.3325 82.1533 12.5544 82.1339 12.7698C82.1167 12.9852 82.0951 13.1705 82.0714 13.3278H75.6414C75.7491 13.8189 75.986 14.1959 76.3501 14.4587C76.7163 14.7215 77.1923 14.8486 77.7783 14.8356C78.2091 14.8356 78.6011 14.7365 78.9544 14.5384C79.3077 14.3402 79.6093 14.0515 79.8613 13.6681L81.9443 14.7645C81.5135 15.5551 80.9362 16.1647 80.2103 16.5977C79.4929 17.0242 78.6335 17.2396 77.6383 17.2396ZM77.5499 9.67652C77.0717 9.67652 76.6646 9.80577 76.3285 10.0621C75.9925 10.3206 75.7706 10.689 75.6629 11.1672H79.4176C79.3335 10.689 79.1267 10.3206 78.7972 10.0621C78.4676 9.80577 78.0518 9.67652 77.5499 9.67652Z" fill="#65A944"/>
<path d="M90.2676 16.9869L87.3574 7.64453H90.3215L91.8488 12.9975L93.6087 7.64453H95.8899L97.6326 12.9975L99.1771 7.64453H102.051L99.1426 16.9869H96.4112L94.7418 12.2802L93.0895 16.9869H90.2676Z" fill="#65A944"/>
<path d="M107.154 17.2396C106.447 17.2396 105.801 17.119 105.213 16.8799C104.627 16.6408 104.121 16.3091 103.694 15.8825C103.27 15.4582 102.94 14.939 102.706 14.3294C102.473 13.7176 102.354 13.0477 102.354 12.3175C102.354 11.598 102.469 10.9367 102.695 10.3335C102.923 9.72822 103.24 9.21123 103.647 8.78041C104.054 8.34958 104.547 8.01138 105.129 7.76582C105.711 7.52025 106.353 7.39746 107.059 7.39746C107.779 7.39746 108.425 7.52025 109 7.76582C109.575 8.01138 110.06 8.34743 110.456 8.77179C110.85 9.19615 111.154 9.69806 111.363 10.2711C111.572 10.8462 111.677 11.4558 111.677 12.1042C111.677 12.3325 111.669 12.5544 111.649 12.7698C111.632 12.9852 111.611 13.1705 111.587 13.3278H105.157C105.265 13.8189 105.502 14.1959 105.866 14.4587C106.232 14.7215 106.708 14.8486 107.294 14.8356C107.725 14.8356 108.117 14.7365 108.47 14.5384C108.823 14.3402 109.125 14.0515 109.377 13.6681L111.46 14.7645C111.029 15.5551 110.452 16.1647 109.726 16.5977C109.009 17.0242 108.149 17.2396 107.154 17.2396ZM107.066 9.67652C106.587 9.67652 106.18 9.80577 105.844 10.0621C105.508 10.3206 105.286 10.689 105.179 11.1672H108.933C108.849 10.689 108.642 10.3206 108.313 10.0621C107.983 9.80577 107.567 9.67652 107.066 9.67652Z" fill="#65A944"/>
<path d="M118.509 7.39489C119.155 7.39489 119.754 7.51768 120.305 7.76325C120.857 8.00882 121.328 8.34917 121.725 8.78645C122.119 9.22374 122.431 9.74504 122.66 10.3503C122.888 10.9557 123 11.6105 123 12.3171C123 13.0236 122.888 13.6806 122.668 14.2838C122.446 14.8891 122.138 15.4104 121.744 15.8477C121.35 16.2849 120.876 16.6253 120.325 16.8709C119.773 17.1164 119.174 17.2392 118.528 17.2392C117.942 17.2392 117.399 17.1294 116.902 16.9075C116.404 16.6856 115.978 16.3776 115.618 15.9834L115.349 16.9893H113.067V3.96338H116.031V8.16607C116.367 7.91403 116.744 7.72232 117.165 7.59092C117.58 7.45952 118.03 7.39489 118.509 7.39489ZM118.024 10.0531C117.425 10.0531 116.943 10.2685 116.579 10.6993C116.212 11.1301 116.031 11.6687 116.031 12.3171C116.031 12.9633 116.215 13.5018 116.579 13.9348C116.945 14.3656 117.425 14.581 118.024 14.581C118.599 14.581 119.073 14.3656 119.444 13.9348C119.814 13.504 120.001 12.9654 120.001 12.3171C120.001 11.6708 119.816 11.1323 119.444 10.6993C119.071 10.2685 118.599 10.0531 118.024 10.0531Z" fill="#65A944"/>
<path d="M56.0454 34.063V27.5425H54.6797V24.8843H56.0454V24.0399C56.0454 22.9628 56.3534 22.099 56.9695 21.4528C57.5856 20.8065 58.4149 20.4834 59.4575 20.4834C59.7936 20.4834 60.093 20.5049 60.3558 20.5459C60.6186 20.589 60.806 20.6277 60.9115 20.6622V23.2838C60.8275 23.2601 60.7198 23.2364 60.5884 23.2127C60.457 23.189 60.2998 23.176 60.121 23.176C59.7009 23.176 59.4123 23.2988 59.2507 23.5444C59.0892 23.79 59.0073 24.1519 59.0073 24.6322V24.8843H60.8038V27.5425H59.0073V34.063H56.0454Z" fill="#65A944"/>
<path d="M67.2854 24.4707C68.0157 24.4707 68.6878 24.5935 69.2974 24.8391C69.907 25.0846 70.4283 25.425 70.8591 25.8623C71.29 26.2996 71.626 26.8208 71.8651 27.4262C72.1042 28.0315 72.2248 28.6863 72.2248 29.3929C72.2248 30.0994 72.1042 30.7564 71.8651 31.3596C71.626 31.9649 71.29 32.4862 70.8591 32.9235C70.4283 33.3608 69.907 33.7011 69.2974 33.9467C68.6856 34.1922 68.0157 34.315 67.2854 34.315C66.5552 34.315 65.8874 34.1922 65.2821 33.9467C64.6768 33.7011 64.1598 33.3608 63.729 32.9235C63.2982 32.4862 62.9621 31.9649 62.723 31.3596C62.4839 30.7543 62.3633 30.0994 62.3633 29.3929C62.3633 28.6863 62.4818 28.0315 62.723 27.4262C62.9621 26.8208 63.2982 26.2996 63.729 25.8623C64.1598 25.425 64.679 25.0846 65.2821 24.8391C65.8874 24.5935 66.5552 24.4707 67.2854 24.4707ZM67.2854 31.5298C67.8714 31.5298 68.3431 31.3294 68.6964 30.9288C69.0497 30.5281 69.2263 30.0089 69.2263 29.3756C69.2263 28.7531 69.0497 28.2447 68.6964 27.8484C68.3431 27.452 67.8735 27.256 67.2854 27.256C66.7103 27.256 66.2472 27.4542 65.8939 27.8484C65.5406 28.2426 65.364 28.7531 65.364 29.3756C65.364 30.0111 65.5406 30.5281 65.8939 30.9288C66.2472 31.3294 66.7103 31.5298 67.2854 31.5298Z" fill="#65A944"/>
<path d="M75.9447 24.7203L76.1773 25.6186C76.4768 25.3428 76.8516 25.0822 77.2996 24.8366C77.7477 24.591 78.2001 24.4683 78.6567 24.4683C78.8484 24.4683 79.0272 24.4833 79.1953 24.5135C79.3633 24.5437 79.4947 24.5889 79.5895 24.6492V27.344H78.9777C78.4629 27.344 78.0083 27.3914 77.612 27.4883C77.2178 27.5853 76.886 27.7339 76.6232 27.9386V34.0649H73.6592V24.7224H75.9447V24.7203Z" fill="#65A944"/>
<path d="M85.0181 34.3153C84.3116 34.3153 83.6653 34.1947 83.0773 33.9556C82.4913 33.7165 81.9851 33.3847 81.5586 32.9582C81.1343 32.5339 80.8047 32.0147 80.5699 31.4051C80.3372 30.7933 80.2188 30.1234 80.2188 29.3932C80.2188 28.6737 80.3329 28.0124 80.5591 27.4092C80.7874 26.8039 81.1041 26.2869 81.5112 25.8561C81.9183 25.4253 82.4116 25.0871 82.9933 24.8415C83.5749 24.5959 84.2168 24.4731 84.9233 24.4731C85.6428 24.4731 86.2891 24.5959 86.8642 24.8415C87.4394 25.0871 87.924 25.4231 88.3204 25.8475C88.7146 26.2718 89.0183 26.7737 89.2273 27.3467C89.4362 27.9219 89.5418 28.5315 89.5418 29.1799C89.5418 29.4082 89.5332 29.6301 89.5138 29.8455C89.4965 30.0609 89.475 30.2462 89.4513 30.4034H83.0213C83.129 30.8946 83.3659 31.2715 83.73 31.5343C84.0962 31.7971 84.5722 31.9242 85.1581 31.9113C85.589 31.9113 85.981 31.8122 86.3343 31.614C86.6876 31.4159 86.9891 31.1272 87.2412 30.7438L89.3242 31.8402C88.8934 32.6308 88.3161 33.2404 87.5901 33.6734C86.8707 34.0999 86.0112 34.3153 85.0181 34.3153ZM84.9277 26.7522C84.4494 26.7522 84.0423 26.8814 83.7063 27.1378C83.3702 27.3963 83.1484 27.7646 83.0406 28.2429H86.7953C86.7113 27.7646 86.5045 27.3963 86.1749 27.1378C85.8475 26.8814 85.4317 26.7522 84.9277 26.7522Z" fill="#65A944"/>
<path d="M90.6947 27.5056C90.6947 27.0855 90.7809 26.6892 90.9553 26.31C91.1298 25.9331 91.3776 25.6035 91.7007 25.3213C92.0238 25.0391 92.4158 24.8151 92.8768 24.6471C93.3378 24.479 93.8613 24.395 94.4493 24.395C95.311 24.395 96.052 24.563 96.6681 24.8969C97.2842 25.233 97.7904 25.6336 98.1867 26.1011L96.4807 27.6822C96.2179 27.4302 95.8969 27.2191 95.5199 27.0446C95.143 26.8723 94.7208 26.7839 94.2533 26.7839C93.9539 26.7839 93.7148 26.8356 93.536 26.9369C93.3572 27.0381 93.2667 27.1846 93.2667 27.3763C93.2667 27.5551 93.3658 27.7081 93.5618 27.8351C93.76 27.9601 94.1521 28.085 94.738 28.2035C95.8991 28.4555 96.7629 28.8196 97.3251 29.2999C97.8873 29.7782 98.1695 30.4502 98.1695 31.3119C98.1695 32.2102 97.8162 32.9447 97.1097 33.5134C96.4031 34.0821 95.4919 34.3664 94.3783 34.3664C93.5877 34.3664 92.879 34.207 92.25 33.8904C91.621 33.5737 91.0307 33.074 90.4814 32.3911L92.0798 30.7928C92.5343 31.271 92.963 31.5984 93.3637 31.7729C93.7643 31.9474 94.1865 32.0335 94.6303 32.0335C94.8694 32.0335 95.0762 31.9797 95.2507 31.872C95.4252 31.7643 95.5113 31.6199 95.5113 31.4411C95.5113 31.2387 95.3713 31.0642 95.0891 30.9198C94.8069 30.7755 94.2598 30.614 93.4455 30.4352C92.5106 30.2435 91.8192 29.9031 91.3711 29.412C90.9187 28.9187 90.6947 28.2832 90.6947 27.5056Z" fill="#65A944"/>
<path d="M105.659 31.2971V33.9919C105.431 34.063 105.185 34.1212 104.922 34.1621C104.66 34.203 104.371 34.2246 104.061 34.2246C103.007 34.2246 102.174 33.9704 101.564 33.462C100.952 32.9537 100.649 32.1351 100.649 31.0106V27.3809H99.2119V24.7228H100.595L101.17 22.3877H103.613V24.7228H105.661V27.3809H103.613V30.2739C103.613 30.694 103.712 30.9956 103.91 31.1808C104.108 31.3661 104.369 31.4587 104.692 31.4587C104.884 31.4587 105.062 31.4436 105.231 31.4135C105.394 31.3833 105.539 31.3445 105.659 31.2971Z" fill="#65A944"/>
<path d="M109.179 34.2611C108.628 34.2611 108.158 34.0672 107.768 33.6773C107.378 33.2874 107.185 32.8178 107.185 32.2663C107.185 31.7278 107.378 31.2625 107.768 30.8748C108.158 30.4849 108.628 30.291 109.179 30.291C109.731 30.291 110.2 30.4849 110.59 30.8748C110.98 31.2647 111.174 31.7278 111.174 32.2663C111.174 32.8178 110.98 33.2874 110.59 33.6773C110.2 34.065 109.731 34.2611 109.179 34.2611Z" fill="#A86645"/>
<path d="M12.2334 39.3687H33.2856L22.7024 9.55566L12.2334 39.3687Z" fill="#A86645"/>
<path d="M46.2448 0H34.0137L40.4976 19.917L46.2448 0Z" fill="#65A944"/>
<path d="M12.2332 0H0L5.68257 19.917L12.2332 0Z" fill="#65A944"/>
</svg>
