<svg width="32" height="32" viewBox="0 0 32 32" fill="none" xmlns="http://www.w3.org/2000/svg">
<path d="M0 3C0 2.73478 0.105357 2.48043 0.292893 2.29289C0.48043 2.10536 0.734783 2 1 2H4C4.22306 2.00006 4.4397 2.0747 4.61546 2.21205C4.79122 2.3494 4.91602 2.54157 4.97 2.758L5.78 6H29C29.1468 6.00014 29.2918 6.03261 29.4247 6.0951C29.5576 6.1576 29.675 6.24859 29.7688 6.36161C29.8625 6.47463 29.9302 6.6069 29.9671 6.74904C30.0039 6.89117 30.009 7.03967 29.982 7.184L26.982 23.184C26.9391 23.4132 26.8175 23.6201 26.6382 23.7691C26.4589 23.9181 26.2331 23.9998 26 24H8C7.76686 23.9998 7.54113 23.9181 7.36182 23.7691C7.18251 23.6201 7.0609 23.4132 7.018 23.184L4.02 7.214L3.22 4H1C0.734783 4 0.48043 3.89464 0.292893 3.70711C0.105357 3.51957 0 3.26522 0 3ZM6.204 8L8.83 22H25.17L27.796 8H6.204ZM10 24C8.93913 24 7.92172 24.4214 7.17157 25.1716C6.42143 25.9217 6 26.9391 6 28C6 29.0609 6.42143 30.0783 7.17157 30.8284C7.92172 31.5786 8.93913 32 10 32C11.0609 32 12.0783 31.5786 12.8284 30.8284C13.5786 30.0783 14 29.0609 14 28C14 26.9391 13.5786 25.9217 12.8284 25.1716C12.0783 24.4214 11.0609 24 10 24ZM24 24C22.9391 24 21.9217 24.4214 21.1716 25.1716C20.4214 25.9217 20 26.9391 20 28C20 29.0609 20.4214 30.0783 21.1716 30.8284C21.9217 31.5786 22.9391 32 24 32C25.0609 32 26.0783 31.5786 26.8284 30.8284C27.5786 30.0783 28 29.0609 28 28C28 26.9391 27.5786 25.9217 26.8284 25.1716C26.0783 24.4214 25.0609 24 24 24ZM10 26C10.5304 26 11.0391 26.2107 11.4142 26.5858C11.7893 26.9609 12 27.4696 12 28C12 28.5304 11.7893 29.0391 11.4142 29.4142C11.0391 29.7893 10.5304 30 10 30C9.46957 30 8.96086 29.7893 8.58579 29.4142C8.21071 29.0391 8 28.5304 8 28C8 27.4696 8.21071 26.9609 8.58579 26.5858C8.96086 26.2107 9.46957 26 10 26ZM24 26C24.5304 26 25.0391 26.2107 25.4142 26.5858C25.7893 26.9609 26 27.4696 26 28C26 28.5304 25.7893 29.0391 25.4142 29.4142C25.0391 29.7893 24.5304 30 24 30C23.4696 30 22.9609 29.7893 22.5858 29.4142C22.2107 29.0391 22 28.5304 22 28C22 27.4696 22.2107 26.9609 22.5858 26.5858C22.9609 26.2107 23.4696 26 24 26Z" fill="#4C4C4C"/>
</svg>
