<svg width="26" height="26" viewBox="0 0 26 26" fill="none" xmlns="http://www.w3.org/2000/svg">
<g clip-path="url(#clip0_1287_4454)">
<path d="M2.4375 0C1.79103 0 1.17105 0.256807 0.713927 0.713927C0.256807 1.17105 0 1.79103 0 2.4375L0 21.125C0 21.556 0.171205 21.9693 0.475951 22.274C0.780698 22.5788 1.19402 22.75 1.625 22.75V2.4375C1.625 2.22201 1.7106 2.01535 1.86298 1.86298C2.01535 1.7106 2.22201 1.625 2.4375 1.625H22.75C22.75 1.19402 22.5788 0.780698 22.274 0.475951C21.9693 0.171205 21.556 0 21.125 0L2.4375 0Z" fill="#4D4D4D"/>
<path d="M5.6875 3.25C5.04103 3.25 4.42105 3.50681 3.96393 3.96393C3.50681 4.42105 3.25 5.04103 3.25 5.6875V23.5625C3.25 24.209 3.50681 24.829 3.96393 25.2861C4.42105 25.7432 5.04103 26 5.6875 26H15.5773C16.2235 25.9994 16.8431 25.7423 17.2997 25.285L25.2866 17.2997C25.7433 16.8428 25.9999 16.2233 26 15.5773V5.6875C26 5.04103 25.7432 4.42105 25.2861 3.96393C24.829 3.50681 24.209 3.25 23.5625 3.25H5.6875ZM4.875 5.6875C4.875 5.47201 4.9606 5.26535 5.11298 5.11298C5.26535 4.9606 5.47201 4.875 5.6875 4.875H23.5625C23.778 4.875 23.9847 4.9606 24.137 5.11298C24.2894 5.26535 24.375 5.47201 24.375 5.6875V14.625H17.0625C16.416 14.625 15.796 14.8818 15.3389 15.3389C14.8818 15.796 14.625 16.416 14.625 17.0625V24.375H5.6875C5.47201 24.375 5.26535 24.2894 5.11298 24.137C4.9606 23.9847 4.875 23.778 4.875 23.5625V5.6875ZM16.25 24.0386V17.0625C16.25 16.847 16.3356 16.6403 16.488 16.488C16.6403 16.3356 16.847 16.25 17.0625 16.25H24.0386L16.25 24.0386Z" fill="#4D4D4D"/>
</g>
<defs>
<clipPath id="clip0_1287_4454">
<rect width="26" height="26" fill="white"/>
</clipPath>
</defs>
</svg>
